<?xml version="1.0" standalone="no"?>
<!DOCTYPE svg PUBLIC "-//W3C//DTD SVG 1.1//EN" "http://www.w3.org/Graphics/SVG/1.1/DTD/svg11.dtd" >
<svg xmlns="http://www.w3.org/2000/svg" xmlns:xlink="http://www.w3.org/1999/xlink" version="1.1">
<metadata>
Created by FontForge 20170731 at Tue Nov 28 01:02:31 2017
 By Aleksey,,,
Web use only; not licensed for further use or distribution by website users.
</metadata>
<defs>
<font id="Munged-f6uTgdAJky" horiz-adv-x="600" >
  <font-face 
    font-family="FB Web Use Only"
    font-weight="700"
    font-stretch="normal"
    units-per-em="2048"
    panose-1="2 0 5 3 0 0 0 2 0 4"
    ascent="1638"
    descent="-410"
    x-height="1159"
    cap-height="1518"
    bbox="-172 -510 2486 1976"
    underline-thickness="50"
    underline-position="-200"
    unicode-range="U+0020-FB02"
  />
<missing-glyph horiz-adv-x="1024" 
 />
    <glyph glyph-name=".notdef" horiz-adv-x="1024" 
 />
    <glyph glyph-name=".null" horiz-adv-x="0" 
 />
    <glyph glyph-name="nonmarkingreturn" horiz-adv-x="682" 
 />
    <glyph glyph-name="space" unicode=" " horiz-adv-x="440" 
 />
    <glyph glyph-name="exclam" unicode="!" horiz-adv-x="823" 
d="M223 360h373v-360h-373v360zM236 1518h352l-35 -1041h-287z" />
    <glyph glyph-name="quotedbl" unicode="&#x22;" horiz-adv-x="1184" 
d="M174 1518h334l-19 -703h-294zM674 1518h336l-21 -703h-295z" />
    <glyph glyph-name="numbersign" unicode="#" horiz-adv-x="1642" 
d="M338 365h-223v278h276l33 180h-309v281h364l80 414h307l-82 -414h203l80 414h305l-78 -414h236v-281h-289l-33 -180h322v-278h-377l-70 -365h-307l70 365h-201l-70 -365h-307zM922 627l41 215h-252l-41 -215h252z" />
    <glyph glyph-name="dollar" unicode="$" horiz-adv-x="1405" 
d="M559 1663h295v-150q90 -6 193 -35.5t184 -78.5l-137 -238q-64 41 -174 66.5t-213 25.5q-139 0 -200 -36.5t-61 -124.5q0 -56 25 -89t78 -54t242 -52q217 -33 316.5 -84t146 -137t46.5 -209q0 -205 -112.5 -317.5t-333.5 -140.5v-202h-295v198q-310 30 -491 157l135 223
q108 -67 224.5 -99t256.5 -32q160 0 235.5 42.5t75.5 145.5q0 61 -26 97.5t-87 58.5t-214 43q-161 24 -230.5 45t-125 51.5t-94 76.5t-60 109.5t-21.5 149.5q0 199 102 306.5t320 132.5v151z" />
    <glyph glyph-name="percent" unicode="%" horiz-adv-x="2554" 
d="M553 539q-235 0 -361 129t-126 372q0 240 127 371t360 131q228 0 354.5 -130.5t126.5 -371.5q0 -242 -126 -371.5t-355 -129.5zM553 778q99 0 147 64.5t48 197.5q0 254 -195 254q-201 0 -201 -254q0 -262 201 -262zM2003 -18q-234 0 -358.5 131t-124.5 372
q0 239 126 370.5t357 131.5q228 0 355.5 -130.5t127.5 -371.5q0 -242 -125 -372.5t-358 -130.5zM2003 221q99 0 148 63.5t49 200.5q0 127 -48 189.5t-149 62.5q-98 0 -147.5 -61t-49.5 -191q0 -133 48 -198.5t149 -65.5zM1550 1520h299l-850 -1520h-297z" />
    <glyph glyph-name="ampersand" unicode="&#x26;" horiz-adv-x="1737" 
d="M662 -18q-316 0 -452 105t-136 339q0 140 74 246.5t235 184.5q-68 160 -68 290q0 189 110 292t318 103q196 0 298 -94t102 -301q0 -242 -282 -379l-54 -26q131 -160 284 -280q84 135 175 460l270 -64q-98 -364 -209 -538l6 -2q60 -23 116.5 -33.5t133.5 -10.5h14v-274
h-26q-156 0 -260 22.5t-199 70.5l-27 -16q-166 -95 -423 -95zM516 629q-70 -46 -99.5 -94.5t-29.5 -104.5q0 -81 27 -119t85 -58t163 -20q116 0 202 31q-217 180 -348 365zM864 1147q0 65 -25.5 98t-95.5 33q-71 0 -98 -33t-27 -98q0 -83 53 -191l3 -7q106 50 148 96.5
t42 101.5z" />
    <glyph glyph-name="quotesingle" unicode="'" horiz-adv-x="686" 
d="M174 1520h334l-19 -705h-294z" />
    <glyph glyph-name="parenleft" unicode="(" horiz-adv-x="1067" 
d="M631 -393q-126 106 -221.5 262t-150 347.5t-54.5 404.5q0 192 53.5 384t154 362t218.5 271l233 -149q-176 -194 -252.5 -405t-76.5 -461q0 -254 84 -478.5t245 -388.5z" />
    <glyph glyph-name="parenright" unicode=")" horiz-adv-x="1067" 
d="M205 -244q123 138 188.5 262.5t102 273.5t36.5 329q0 181 -41 340.5t-115 295t-171 232.5l229 149q197 -169 312.5 -439t115.5 -576q0 -188 -53 -379.5t-154.5 -363t-220.5 -273.5z" />
    <glyph glyph-name="asterisk" unicode="*" horiz-adv-x="1247" 
d="M526 817l-284 -190l-127 229l311 143l-311 148l125 227l286 -192l-28 338h250l-29 -342l287 196l127 -225l-314 -150l314 -145l-125 -225l-289 192l26 -338h-247z" />
    <glyph glyph-name="plus" unicode="+" horiz-adv-x="1479" 
d="M580 578h-390v288h390v387h319v-387h389v-288h-389v-390h-319v390z" />
    <glyph glyph-name="comma" unicode="," 
d="M123 -164q112 54 139 82t27 82h-176v369h372v-263q0 -146 -23.5 -212.5t-81.5 -114t-179 -98.5z" />
    <glyph glyph-name="hyphen" unicode="-" horiz-adv-x="870" 
d="M78 815h710v-287h-710v287z" />
    <glyph glyph-name="hyphen" unicode="&#xad;" horiz-adv-x="870" 
d="M78 815h710v-287h-710v287z" />
    <glyph glyph-name="period" unicode="." 
d="M113 369h372v-369h-372v369z" />
    <glyph glyph-name="slash" unicode="/" horiz-adv-x="1176" 
d="M848 1518h328l-848 -1518h-328z" />
    <glyph glyph-name="zero" unicode="0" horiz-adv-x="1581" 
d="M793 -23q-345 0 -505.5 187t-160.5 596q0 408 160 595t506 187q342 0 501.5 -188.5t159.5 -593.5t-160 -594t-501 -189zM793 256q176 0 252.5 114t76.5 390q0 272 -76 380.5t-253 108.5q-121 0 -194 -48t-106.5 -148.5t-33.5 -292.5q0 -279 78.5 -391.5t255.5 -112.5z
" />
    <glyph glyph-name="one" unicode="1" horiz-adv-x="850" 
d="M322 1229h-259v289h574v-1518h-315v1229z" />
    <glyph glyph-name="two" unicode="2" horiz-adv-x="1321" 
d="M68 252l495 428q169 147 218 202t70 101t21 102q0 100 -58.5 138.5t-201.5 38.5q-105 0 -221.5 -27t-189.5 -68l-146 248q148 75 277.5 101t312.5 26q284 0 415.5 -102.5t131.5 -323.5q0 -105 -32.5 -191.5t-102 -172t-221.5 -215.5l-314 -271h686v-266h-1140v252z" />
    <glyph glyph-name="three" unicode="3" horiz-adv-x="1331" 
d="M643 -25q-198 0 -343.5 37t-291.5 127l150 242q126 -72 238 -104.5t231 -32.5q166 0 228.5 48.5t62.5 172.5q0 85 -29.5 128t-96.5 62t-186 19h-266v270h262q154 0 213 35t59 133q0 90 -53 123t-200 33q-110 0 -222.5 -29t-189.5 -76l-164 236q113 69 270.5 106t335.5 37
q285 0 412 -87.5t127 -276.5q0 -152 -41 -232.5t-139 -116.5q121 -32 171 -120.5t50 -268.5q0 -237 -137.5 -351t-450.5 -114z" />
    <glyph glyph-name="four" unicode="4" horiz-adv-x="1434" 
d="M70 551l665 967h344l-657 -949h426l65 432h226v-432h241v-258h-241v-311h-295v311h-774v240z" />
    <glyph glyph-name="five" unicode="5" horiz-adv-x="1376" 
d="M682 -23q-172 0 -321.5 38.5t-288.5 125.5l149 242q133 -75 240 -107t213 -32q125 0 188 25.5t94 80.5t31 146q0 92 -31.5 147t-93 81t-178.5 26q-169 0 -281 -54l-268 80l39 742h1016v-275h-744l-16 -285q114 56 334 56q211 0 324.5 -54.5t167 -168t53.5 -285.5
q0 -187 -61 -303t-191 -171t-375 -55z" />
    <glyph glyph-name="six" unicode="6" horiz-adv-x="1493" 
d="M784 -23q-344 0 -504.5 163.5t-160.5 514.5q0 271 48 428.5t151 251.5t280 138.5t455 44.5h141v-275h-152q-142 0 -241.5 -14.5t-166 -40t-106 -62.5t-60 -85t-30.5 -152q52 71 163 105t290 34q264 0 387 -119t123 -391q0 -279 -150 -410t-467 -131zM786 240
q109 0 175.5 27t96 81.5t29.5 157.5q0 146 -73.5 207t-225.5 61q-335 0 -335 -252q0 -147 78 -214.5t255 -67.5z" />
    <glyph glyph-name="seven" unicode="7" horiz-adv-x="1206" 
d="M803 1243h-780v275h1132v-234l-551 -1284h-338z" />
    <glyph glyph-name="eight" unicode="8" horiz-adv-x="1513" 
d="M756 -33q-321 0 -487.5 116.5t-166.5 344.5q0 324 244 403q-97 39 -144.5 113.5t-47.5 208.5q0 202 152.5 295.5t449.5 93.5q301 0 452.5 -94t151.5 -295q0 -130 -47.5 -207.5t-147.5 -114.5q248 -79 248 -403q0 -227 -167.5 -344t-489.5 -117zM756 225q167 0 249 56.5
t82 173.5q0 118 -81 174.5t-250 56.5q-170 0 -249 -56.5t-79 -174.5t80.5 -174t247.5 -56zM756 930q150 0 220.5 42.5t70.5 137.5q0 92 -69.5 134t-221.5 42q-151 0 -220 -41t-69 -135q0 -96 70 -138t219 -42z" />
    <glyph glyph-name="nine" unicode="9" horiz-adv-x="1493" 
d="M315 266h154q144 0 244 14.5t166.5 40t105.5 62t58.5 82t29.5 158.5q-52 -71 -161.5 -104.5t-290.5 -33.5q-260 0 -385 122.5t-125 387.5q0 281 150.5 414t465.5 133q345 0 505.5 -163t160.5 -515q0 -353 -87.5 -530.5t-287 -255.5t-559.5 -78h-144v266zM723 733
q336 0 336 250q0 148 -80 215.5t-252 67.5q-110 0 -175.5 -26t-96.5 -80t-31 -161q0 -141 71.5 -203.5t227.5 -62.5z" />
    <glyph glyph-name="colon" unicode=":" horiz-adv-x="641" 
d="M133 356h373v-356h-373v356zM133 1159h373v-356h-373v356z" />
    <glyph glyph-name="semicolon" unicode=";" horiz-adv-x="641" 
d="M143 -164q112 54 139 82t27 82h-176v356h373v-250q0 -138 -26 -207t-86.5 -120t-172.5 -98zM133 1159h373v-356h-373v356z" />
    <glyph glyph-name="less" unicode="&#x3c;" horiz-adv-x="1479" 
d="M227 600v219l944 467v-289l-608 -286l608 -289v-293z" />
    <glyph glyph-name="equal" unicode="=" horiz-adv-x="1479" 
d="M203 616h1075v-286h-1075v286zM203 1112h1075v-285h-1075v285z" />
    <glyph glyph-name="greater" unicode="&#x3e;" horiz-adv-x="1479" 
d="M307 422l611 285l-611 288v291l946 -469v-221l-946 -467v293z" />
    <glyph glyph-name="question" unicode="?" horiz-adv-x="1438" 
d="M520 440q-12 81 -12 142q0 116 53.5 185.5t208.5 137.5q92 41 133 68t57.5 56t16.5 81q0 60 -25 89t-80 42.5t-155 13.5q-232 0 -434 -100l-136 266q103 52 265 86.5t329 34.5q300 0 434 -96t134 -307q0 -99 -27 -169.5t-83.5 -121.5t-172.5 -103q-127 -56 -161.5 -95.5
t-34.5 -116.5l4 -93h-314zM489 322h373v-322h-373v322z" />
    <glyph glyph-name="at" unicode="@" horiz-adv-x="2177" 
d="M1122 -338q-510 0 -745.5 227t-235.5 707q0 468 237 708t707 240q953 0 953 -948q0 -220 -36 -330.5t-119.5 -158.5t-244.5 -48q-131 0 -207.5 36t-99.5 120q-54 -78 -138.5 -109.5t-225.5 -31.5q-220 0 -330.5 129t-110.5 405q0 531 457 531q143 0 214.5 -27.5
t115.5 -97.5l71 108l189 -16v-737q2 -64 15.5 -92.5t42 -43t75.5 -14.5q65 0 97.5 27.5t45.5 93.5t13 256q0 398 -187 589t-590 191q-391 0 -579.5 -194t-188.5 -586q0 -389 194 -577.5t609 -188.5q149 0 296 32t243 81l74 -150q-262 -131 -611 -131zM1038 313
q133 0 192.5 71t59.5 224q0 154 -57.5 214.5t-194.5 60.5q-115 0 -170 -65t-55 -210q0 -151 55.5 -223t169.5 -72z" />
    <glyph glyph-name="A" unicode="A" horiz-adv-x="1618" 
d="M637 1528h340l612 -1528h-348l-98 250h-688l-99 -250h-327zM1036 526l-237 604l-238 -604h475z" />
    <glyph glyph-name="B" unicode="B" horiz-adv-x="1546" 
d="M152 1518h704q305 0 440.5 -92.5t135.5 -299.5q0 -133 -49 -215.5t-154 -119.5q130 -31 187 -118.5t57 -254.5q0 -153 -62 -243.5t-192.5 -132.5t-366.5 -42h-700v1518zM891 279q129 0 185.5 39.5t56.5 132.5q0 90 -54 130t-188 40h-410v-342h410zM868 911
q119 0 171.5 37t52.5 129q0 87 -53 121.5t-171 34.5h-387v-322h387z" />
    <glyph glyph-name="C" unicode="C" horiz-adv-x="1554" 
d="M850 -23q-401 0 -590.5 190t-189.5 593q0 387 200 584.5t600 197.5q194 0 337 -51.5t259 -167.5l-231 -231q-78 76 -166 109.5t-201 33.5q-234 0 -347 -117.5t-113 -361.5q0 -253 111 -366.5t351 -113.5q119 0 206 33.5t179 120.5l222 -217q-122 -127 -273 -181.5
t-354 -54.5z" />
    <glyph glyph-name="D" unicode="D" horiz-adv-x="1610" 
d="M152 1518h544q335 0 511 -72.5t255.5 -235t79.5 -450.5q0 -285 -83 -449t-262.5 -237.5t-508.5 -73.5h-536v1518zM707 293q197 0 302 41t150 133.5t45 292.5q0 161 -24 241.5t-77.5 126.5t-148 67.5t-254.5 21.5h-213v-924h220z" />
    <glyph glyph-name="E" unicode="E" horiz-adv-x="1407" 
d="M152 1518h1140v-304h-805v-294h785v-293h-785v-336h813v-291h-1148v1518z" />
    <glyph glyph-name="F" unicode="F" horiz-adv-x="1335" 
d="M152 1518h1103v-304h-768v-325h748v-299h-748v-590h-335v1518z" />
    <glyph glyph-name="G" unicode="G" horiz-adv-x="1636" 
d="M846 -23q-277 0 -447 80t-249.5 245t-79.5 458q0 396 198.5 589t599.5 193q409 0 615 -215l-230 -231q-85 79 -177 109t-210 30q-238 0 -349 -116t-111 -363q0 -194 45 -297t144.5 -151t266.5 -48q207 0 294 69.5t87 241.5v33h-424v279h756v-248q0 -242 -74.5 -382.5
t-234 -208t-420.5 -67.5z" />
    <glyph glyph-name="H" unicode="H" horiz-adv-x="1669" 
d="M152 1518h335v-582h695v582h336v-1518h-336v623h-695v-623h-335v1518z" />
    <glyph glyph-name="I" unicode="I" horiz-adv-x="682" 
d="M174 1518h334v-1518h-334v1518z" />
    <glyph glyph-name="J" unicode="J" horiz-adv-x="932" 
d="M268 -4h-80q-91 0 -143 4v291h182q126 0 177 44.5t51 156.5v1026h333v-1039q0 -245 -122.5 -364t-397.5 -119z" />
    <glyph glyph-name="K" unicode="K" horiz-adv-x="1556" 
d="M152 1518h331v-686l576 686h371l-513 -601l586 -917h-379l-425 661l-216 -253v-408h-331v1518z" />
    <glyph glyph-name="L" unicode="L" horiz-adv-x="1264" 
d="M152 1518h335v-1227h746v-291h-1081v1518z" />
    <glyph glyph-name="M" unicode="M" horiz-adv-x="2003" 
d="M152 1518h438l411 -1037l412 1037h436v-1518h-327v1014l-408 -1014h-254l-405 1008v-1008h-303v1518z" />
    <glyph glyph-name="N" unicode="N" horiz-adv-x="1686" 
d="M152 1518h362l698 -957v957h320v-1518h-307l-752 1024v-1024h-321v1518z" />
    <glyph glyph-name="O" unicode="O" horiz-adv-x="1747" 
d="M872 -25q-802 0 -802 785q0 782 802 782q805 0 805 -782q0 -785 -805 -785zM872 270q236 0 350.5 117t114.5 367q0 251 -114.5 366t-350.5 115q-235 0 -349.5 -115t-114.5 -366q0 -250 114 -367t350 -117z" />
    <glyph glyph-name="P" unicode="P" horiz-adv-x="1556" 
d="M152 1518h729q311 0 458.5 -120t147.5 -388q0 -284 -154 -414.5t-469 -130.5h-385v-465h-327v1518zM879 752q147 0 209.5 56.5t62.5 184.5q0 130 -60 184t-217 54h-395v-479h400z" />
    <glyph glyph-name="Q" unicode="Q" horiz-adv-x="1747" 
d="M1122 -406q-137 0 -229 18t-149 58t-84 106t-27 188l1 48l-94 21q-470 124 -470 727q0 391 198.5 586.5t603.5 195.5q407 0 606 -196.5t199 -585.5q0 -248 -79 -412.5t-234 -251t-411 -100.5v-17q0 -49 13.5 -71t44.5 -31.5t109 -9.5h195v-268q-77 -5 -193 -5zM872 270
q237 0 351 114.5t114 369.5q0 256 -114.5 368.5t-350.5 112.5q-237 0 -350.5 -113.5t-113.5 -367.5t114 -369t350 -115z" />
    <glyph glyph-name="R" unicode="R" horiz-adv-x="1581" 
d="M152 1518h733q209 0 338.5 -52.5t191.5 -157.5t62 -286q0 -197 -81 -314.5t-239 -165.5l301 -542h-358l-280 504h-341v-504h-327v1518zM874 793q151 0 208 49.5t57 167.5q0 126 -59 173.5t-210 47.5h-391v-438h395z" />
    <glyph glyph-name="S" unicode="S" horiz-adv-x="1518" 
d="M768 -23q-227 0 -410 51.5t-313 147.5l168 242q241 -162 545 -162q135 0 210.5 17t108.5 53t33 114q0 53 -31.5 85.5t-100 54t-228.5 43.5q-266 37 -386 89t-175.5 140.5t-55.5 230.5q0 243 148.5 351t484.5 108q388 0 614 -149l-180 -260q-76 51 -200 83.5t-238 32.5
q-113 0 -176.5 -15t-91 -47t-27.5 -95q0 -50 29 -81.5t89.5 -52t248.5 -47.5q213 -30 318 -64.5t167 -85.5t92.5 -127t30.5 -177q0 -254 -163.5 -367t-510.5 -113z" />
    <glyph glyph-name="T" unicode="T" horiz-adv-x="1446" 
d="M555 1214h-526v304h1388v-304h-524v-1214h-338v1214z" />
    <glyph glyph-name="U" unicode="U" horiz-adv-x="1671" 
d="M836 -29q-183 0 -314.5 35t-215 102t-124.5 176t-41 296v938h336v-895q0 -144 35 -215.5t113 -105.5t215 -34t215.5 33.5t113.5 105t35 216.5v895h326v-938q0 -188 -41.5 -296.5t-124.5 -175.5t-214 -102t-314 -35z" />
    <glyph glyph-name="V" unicode="V" horiz-adv-x="1604" 
d="M31 1518h352l424 -1110l422 1110h346l-604 -1528h-340z" />
    <glyph glyph-name="W" unicode="W" horiz-adv-x="2216" 
d="M39 1518h350l283 -975l295 975h303l297 -975l282 975h328l-461 -1528h-297l-311 1020l-311 -1020h-295z" />
    <glyph glyph-name="X" unicode="X" horiz-adv-x="1599" 
d="M111 1518h376l326 -468l307 468h371l-505 -716l560 -802h-381l-380 547l-361 -547h-371l558 797z" />
    <glyph glyph-name="Y" unicode="Y" horiz-adv-x="1556" 
d="M6 1518h361l417 -684l418 684h346l-604 -986v-532h-334v532z" />
    <glyph glyph-name="Z" unicode="Z" horiz-adv-x="1417" 
d="M66 250l833 964h-799v304h1223v-275l-821 -952h844v-291h-1280v250z" />
    <glyph glyph-name="bracketleft" unicode="[" horiz-adv-x="1057" 
d="M223 1589h656v-276h-330v-1383h336v-268h-662v1927z" />
    <glyph glyph-name="backslash" unicode="\" horiz-adv-x="1176" 
d="M0 1518h328l848 -1518h-328z" />
    <glyph glyph-name="bracketright" unicode="]" horiz-adv-x="1057" 
d="M172 -70h334v1383h-330v276h655v-1927h-659v268z" />
    <glyph glyph-name="underscore" unicode="_" horiz-adv-x="928" 
d="M-76 -82h1080v-240h-1080v240z" />
    <glyph glyph-name="grave" unicode="`" horiz-adv-x="1208" 
d="M139 1645h387l289 -375h-285z" />
    <glyph glyph-name="a" unicode="a" horiz-adv-x="1321" 
d="M487 -18q-222 0 -329 83t-107 275q0 153 70.5 240.5t222 126t451.5 38.5h47l-6 58q-8 52 -59 76t-165 24q-86 0 -175.5 -25t-160.5 -69l-159 235q93 63 241 102.5t289 39.5q197 0 304.5 -42t153.5 -134.5t46 -284.5v-352q0 -57 7 -74.5t25 -25t68 -7.5v-262
q-27 -8 -135 -8q-97 0 -142.5 24.5t-78.5 90.5q-97 -129 -408 -129zM356 367q0 -68 44.5 -97.5t150.5 -29.5q155 0 223 57.5t68 183.5v43h-27q-152 0 -238.5 -6.5t-133.5 -21t-67 -42t-20 -87.5z" />
    <glyph glyph-name="b" unicode="b" horiz-adv-x="1395" 
d="M807 -18q-156 0 -253.5 29.5t-147.5 88.5l-64 -112l-215 22v1579h319v-514q95 111 379 111q249 0 373.5 -143.5t124.5 -460.5q0 -307 -126.5 -453.5t-389.5 -146.5zM745 252q132 0 192 74t60 243q0 124 -25.5 190t-81 100t-145.5 34q-157 0 -226.5 -74.5t-69.5 -249.5
q0 -180 66.5 -248.5t229.5 -68.5z" />
    <glyph glyph-name="c" unicode="c" horiz-adv-x="1202" 
d="M666 -18q-208 0 -339 65t-193 193t-62 342q0 219 65.5 349t200.5 192.5t342 62.5q301 0 471 -189l-225 -213q-57 60 -116 83.5t-130 23.5q-148 0 -216.5 -73t-68.5 -245q0 -123 29.5 -189t92 -99t165.5 -33q79 0 138 25.5t124 87.5l205 -197q-118 -109 -224.5 -147.5
t-258.5 -38.5z" />
    <glyph glyph-name="d" unicode="d" horiz-adv-x="1395" 
d="M575 -23q-251 0 -377 148t-126 461q0 311 129.5 455.5t384.5 144.5q275 0 360 -109v512h322v-1577l-246 -22l-33 116q-59 -68 -161.5 -98.5t-252.5 -30.5zM651 254q156 0 225.5 76t69.5 256q0 124 -28 187.5t-91.5 93.5t-175.5 30q-133 0 -193.5 -70t-60.5 -241
q0 -179 61.5 -255.5t192.5 -76.5z" />
    <glyph glyph-name="e" unicode="e" horiz-adv-x="1268" 
d="M676 -23q-203 0 -337.5 61.5t-200.5 191.5t-66 352q0 219 68 350t202 192.5t332 61.5q264 0 387.5 -125t129.5 -413v-80l-1 -109h-807q11 -80 43 -126.5t91 -70.5t159 -24q117 0 202.5 24.5t161.5 81.5l162 -209q-115 -86 -238 -122t-288 -36zM897 688q-6 97 -30 141.5
t-72.5 66.5t-130.5 22q-94 0 -151 -25t-87.5 -72t-42.5 -133h514z" />
    <glyph glyph-name="f" unicode="f" horiz-adv-x="909" 
d="M51 1159h219v55q0 224 104 318t335 94l153 -4v-262h-110q-86 0 -124 -31.5t-38 -111.5v-58h272v-274h-272v-885h-320v885h-219v274z" />
    <glyph glyph-name="g" unicode="g" horiz-adv-x="1335" 
d="M641 426q-83 0 -153 7v-1q-11 -19 -11 -41q0 -37 31.5 -50t159.5 -13q246 0 369.5 -28t177 -92t53.5 -198q0 -199 -147 -288t-484 -89q-254 0 -375 26t-174 85.5t-53 171.5q0 210 227 260q-34 24 -51.5 61.5t-17.5 102.5q0 100 57 162q-150 90 -150 291q0 200 133 296.5
t408 96.5l65 -2l515 102v-244h-165q70 -41 99 -100.5t29 -148.5q0 -192 -130.5 -279.5t-412.5 -87.5zM649 -145q159 0 225 29.5t66 103.5q0 61 -60 83.5t-231 22.5q-111 0 -173.5 -11t-90 -34.5t-27.5 -75.5q0 -48 27.5 -72t87 -35t176.5 -11zM641 639q118 0 172.5 33
t54.5 116q0 80 -52.5 115t-174.5 35q-124 0 -175.5 -34.5t-51.5 -115.5t53.5 -115t173.5 -34z" />
    <glyph glyph-name="h" unicode="h" horiz-adv-x="1360" 
d="M127 1589h319v-508q99 105 377 105q151 0 241.5 -48.5t132.5 -146t42 -289.5v-702h-319v639q0 107 -20 152t-65 68.5t-126 23.5q-95 0 -152 -26t-82.5 -77.5t-25.5 -154.5v-625h-322v1589z" />
    <glyph glyph-name="i" unicode="i" 
d="M139 1159h320v-1159h-320v1159zM137 1559h324v-293h-324v293z" />
    <glyph glyph-name="j" unicode="j" 
d="M6 -102h25q47 0 69 10.5t30.5 36.5t8.5 102v1112h320v-1110q0 -165 -34 -246t-113.5 -115t-245.5 -34h-60v244zM137 1559h324v-293h-324v293z" />
    <glyph glyph-name="k" unicode="k" horiz-adv-x="1239" 
d="M127 1589h317v-909l396 479h350l-389 -473l424 -686h-357l-283 446l-141 -165v-281h-317v1589z" />
    <glyph glyph-name="l" unicode="l" horiz-adv-x="698" 
d="M457 -4q-173 0 -245.5 83.5t-72.5 270.5v1239h320v-1200q0 -72 21 -96.5t93 -24.5h39v-264q-53 -8 -155 -8z" />
    <glyph glyph-name="m" unicode="m" horiz-adv-x="2103" 
d="M127 1141l250 18l26 -100q44 61 148.5 94t259.5 33q102 0 166 -12t103 -36.5t69 -82.5q103 131 430 131q149 0 237.5 -48t128.5 -144t40 -292v-702h-324v639q0 117 -18 159t-59 63.5t-120 21.5q-93 0 -146 -24.5t-77 -72.5t-24 -161v-625h-322v639q0 118 -18.5 159.5
t-61 63t-119.5 21.5q-93 0 -146 -24.5t-77 -72.5t-24 -161v-625h-322v1141z" />
    <glyph glyph-name="n" unicode="n" horiz-adv-x="1360" 
d="M127 1141l250 18l26 -100q117 127 420 127q151 0 241.5 -48.5t132.5 -146t42 -289.5v-702h-319v639q0 107 -20 152t-65 68.5t-126 23.5q-95 0 -152 -26t-82.5 -77.5t-25.5 -154.5v-625h-322v1141z" />
    <glyph glyph-name="o" unicode="o" horiz-adv-x="1354" 
d="M678 -23q-309 0 -457.5 147.5t-148.5 457.5q0 308 147 456t459 148q309 0 456.5 -147t147.5 -457q0 -312 -149 -458.5t-455 -146.5zM678 252q146 0 214.5 75t68.5 246t-68.5 245.5t-214.5 74.5q-147 0 -215 -75t-68 -245q0 -171 68 -246t215 -75z" />
    <glyph glyph-name="p" unicode="p" horiz-adv-x="1395" 
d="M127 1141l250 18l26 -102q58 68 163.5 98.5t260.5 30.5q249 0 372.5 -144t123.5 -460q0 -314 -129 -457t-385 -143q-141 0 -227.5 25.5t-132.5 82.5v-428h-322v1479zM745 254q130 0 191 72t61 243q0 124 -25.5 190t-81 100t-145.5 34q-158 0 -227 -73.5t-69 -250.5
t65.5 -246t230.5 -69z" />
    <glyph glyph-name="q" unicode="q" horiz-adv-x="1395" 
d="M946 82q-52 -54 -137.5 -79.5t-233.5 -25.5q-251 0 -377 147t-126 460q0 307 126.5 454.5t387.5 147.5q156 0 253.5 -29t149.5 -90l64 98l215 -18v-1485h-322v420zM651 254q156 0 225.5 76t69.5 254q0 125 -28 189t-90.5 94t-176.5 30q-131 0 -192.5 -70t-61.5 -243
q0 -179 62.5 -254.5t191.5 -75.5z" />
    <glyph glyph-name="r" unicode="r" horiz-adv-x="827" 
d="M127 1141l250 18l33 -127q35 55 135.5 95t234.5 44v-307q-122 -1 -193 -29.5t-104.5 -88t-33.5 -173.5v-573h-322v1141z" />
    <glyph glyph-name="s" unicode="s" horiz-adv-x="1174" 
d="M573 -18q-337 0 -553 145l164 235q87 -56 197.5 -88t212.5 -32q131 0 170 20t39 76q0 30 -14.5 47.5t-47.5 28.5t-143 26q-161 22 -229 40.5t-120 45.5t-86 67t-52.5 95t-18.5 135q0 188 123 275.5t383 87.5q143 0 271.5 -28t217.5 -79l-153 -250q-71 37 -161 56.5
t-165 19.5q-73 0 -116 -8t-61.5 -25t-18.5 -51q0 -46 37 -65.5t153 -34.5q111 -15 205 -33.5t162.5 -56t107.5 -102.5t39 -173q0 -139 -53.5 -218.5t-170.5 -117.5t-319 -38z" />
    <glyph glyph-name="t" unicode="t" horiz-adv-x="928" 
d="M51 1159h206l54 283l250 51v-334h275v-274h-275v-477q0 -65 14 -90.5t45 -37.5t91 -12h125v-268q-36 -4 -144 -4h-47q-151 0 -237.5 34.5t-126 110t-39.5 219.5v525h-191v274z" />
    <glyph glyph-name="u" unicode="u" horiz-adv-x="1343" 
d="M674 -18q-212 0 -330 52t-170.5 166t-52.5 341v618h321v-624q0 -61 4 -111.5t26.5 -87t70 -56.5t133.5 -20q90 0 139.5 24t70.5 71t21 182v622h316v-616q0 -228 -52 -343t-169.5 -166.5t-327.5 -51.5z" />
    <glyph glyph-name="v" unicode="v" horiz-adv-x="1255" 
d="M-2 1159h346l293 -786l293 786h325l-460 -1171h-336z" />
    <glyph glyph-name="w" unicode="w" horiz-adv-x="1884" 
d="M18 1159h338l213 -706l222 706h317l221 -704l213 704h324l-377 -1171h-307l-240 745l-240 -745h-305z" />
    <glyph glyph-name="x" unicode="x" horiz-adv-x="1227" 
d="M49 1159h359l224 -321l210 321h338l-385 -555l422 -604h-361l-260 374l-248 -374h-338l424 606z" />
    <glyph glyph-name="y" unicode="y" horiz-adv-x="1196" 
d="M-2 1159h346l268 -738l260 738h326l-465 -1210q-45 -122 -100.5 -183t-139.5 -87.5t-219 -26.5l-114 4v242h86q64 0 98 7t52 23t30 56l15 42z" />
    <glyph glyph-name="z" unicode="z" horiz-adv-x="1106" 
d="M41 215l575 670h-542v274h975v-219l-580 -682h602v-258h-1030v215z" />
    <glyph glyph-name="braceleft" unicode="{" horiz-adv-x="1133" 
d="M700 -338q-210 0 -305.5 72t-95.5 217q0 68 51 237q33 111 42 150t9 61q0 56 -46 75.5t-216 19.5v262q133 0 178.5 8.5t64.5 28t19 59.5q0 24 -8.5 61t-42.5 150q-51 169 -51 237q0 145 95.5 217t305.5 72h261v-276h-183q-83 0 -115 -21.5t-32 -81.5q0 -30 46 -185
q46 -156 46 -230q0 -130 -137 -168q137 -42 137 -170q0 -72 -46 -233t-46 -191q0 -60 31.5 -81.5t115.5 -21.5h183v-268h-261z" />
    <glyph glyph-name="bar" unicode="|" horiz-adv-x="774" 
d="M223 1589h326v-1927h-326v1927z" />
    <glyph glyph-name="braceright" unicode="}" horiz-adv-x="1133" 
d="M172 -70h184q83 0 115.5 21.5t32.5 81.5q0 27 -24 113q-46 158 -58 216.5t-12 94.5q0 128 137 170q-137 37 -137 168q0 71 47 230q47 158 47 185q0 60 -31.5 81.5t-116.5 21.5h-184v276h260q212 0 308 -72t96 -217q0 -70 -52 -237q-53 -167 -53 -211q0 -56 45.5 -75
t216.5 -19v-262q-169 0 -215.5 -19.5t-46.5 -77.5q0 -44 53 -211q52 -167 52 -237q0 -145 -96 -217t-308 -72h-260v268z" />
    <glyph glyph-name="exclamdown" unicode="&#xa1;" horiz-adv-x="823" 
d="M268 1040h287l33 -1040h-352zM225 1518h373v-361h-373v361z" />
    <glyph glyph-name="cent" unicode="&#xa2;" horiz-adv-x="1208" 
d="M78 582q0 182 45 300.5t141 189t246 94.5v141h305v-139q202 -33 326 -171l-215 -204q-52 54 -111 79t-135 25q-148 0 -219.5 -75t-71.5 -249q0 -172 71.5 -249.5t221.5 -77.5q79 0 139.5 25t122.5 83l195 -186q-84 -78 -158.5 -115.5t-162.5 -52.5l-3 -1v-192h-305v192
l-53 9q-195 46 -287 183t-92 391z" />
    <glyph glyph-name="sterling" unicode="&#xa3;" horiz-adv-x="1376" 
d="M51 897h181q-33 140 -33 221q0 220 132.5 323t399.5 103q258 0 461 -82l-123 -266q-61 27 -153.5 44t-192.5 17q-108 0 -157.5 -40.5t-49.5 -143.5q0 -56 27 -176h381v-246h-321q28 -121 28 -200q0 -78 -14 -143q41 -18 112.5 -36t140.5 -18q66 0 101 15.5t50 49.5
t15 117v60h279v-72q0 -239 -99 -338.5t-337 -99.5q-193 0 -399 106q-137 -92 -423 -92v260q116 0 176 13.5t84.5 44.5t24.5 124q0 43 -14.5 108.5t-26.5 100.5h-250v246z" />
    <glyph glyph-name="currency" unicode="&#xa4;" horiz-adv-x="1152" 
d="M1056 392l-116 -108l-200 216q-72 -48 -168 -48q-92 0 -164 48l-200 -216l-116 108l208 216q-28 40 -38 78t-10 94q0 103 48 172l-208 216l116 108l200 -216q72 48 164 48q96 0 168 -48l204 216l116 -120l-208 -204q28 -40 38 -80t10 -92q0 -96 -52 -172zM748 780
q0 80 -50 130t-126 50t-124 -50t-48 -130t50 -128t122 -48q80 0 128 48t48 128z" />
    <glyph glyph-name="yen" unicode="&#xa5;" horiz-adv-x="1399" 
d="M152 350h387v119h-387v225h374l-508 824h342l338 -578l340 578h340l-508 -824h373v-225h-387v-119h387v-225h-387v-125h-317v125h-387v225z" />
    <glyph glyph-name="section" unicode="&#xa7;" horiz-adv-x="1241" 
d="M449 1114q0 163 44.5 245.5t140 124.5t255.5 42l153 -4v-262h-112q-63 0 -98 -13t-49.5 -42t-14.5 -89v-31q176 -24 261 -106.5t85 -226.5q0 -140 -80 -220.5t-254 -105.5v-25q0 -162 -47 -247.5t-145 -124.5t-248 -39l-154 4v250h113q61 0 96 13t49.5 39.5t14.5 90.5v39
q-171 23 -251.5 104t-80.5 222q0 279 322 330v32zM618 618q126 0 182 29t56 96q0 66 -53.5 95.5t-184.5 29.5q-127 0 -180 -29t-53 -96t55 -96t178 -29z" />
    <glyph glyph-name="dieresis" unicode="&#xa8;" horiz-adv-x="1208" 
d="M227 1559h291v-279h-291v279zM692 1559h289v-279h-289v279z" />
    <glyph glyph-name="copyright" unicode="&#xa9;" horiz-adv-x="1657" 
d="M844 272q-496 0 -496 498q0 242 130.5 370t377.5 128q127 0 218 -35t159 -105l-146 -145q-90 90 -233 90q-293 0 -293 -305q0 -307 295 -307q68 0 125 20t119 76l139 -135q-76 -79 -170.5 -114.5t-224.5 -35.5zM827 -25q-235 0 -407 97t-262 274t-90 414q0 236 90 413
t261.5 274t407.5 97q234 0 407.5 -97t264 -275t90.5 -412q0 -235 -90.5 -413t-263.5 -275t-408 -97zM827 92q205 0 348.5 79.5t216 229.5t72.5 359q0 319 -165.5 493t-471.5 174t-471.5 -173t-165.5 -494q0 -322 165.5 -495t471.5 -173z" />
    <glyph glyph-name="registered" unicode="&#xae;" horiz-adv-x="1657" 
d="M827 -25q-235 0 -407 97t-262 274t-90 414q0 236 90 413t261.5 274t407.5 97q234 0 407.5 -97t264 -275t90.5 -412q0 -235 -90.5 -413t-263.5 -275t-408 -97zM827 92q205 0 348.5 79.5t216 229.5t72.5 359q0 319 -165.5 493t-471.5 174t-471.5 -173t-165.5 -494
q0 -322 165.5 -495t471.5 -173zM451 1223h444q130 0 208 -30t114 -91.5t36 -179.5q0 -71 -15 -126.5t-55.5 -96t-123.5 -68.5l188 -340h-211l-176 321h-215v-321h-194v932zM889 780q97 0 130.5 30t33.5 105q0 78 -34.5 107t-131.5 29h-242v-271h244z" />
    <glyph glyph-name="degree" unicode="&#xb0;" horiz-adv-x="1165" 
d="M582 547q-155 0 -265.5 60.5t-168.5 172t-58 264.5q0 151 57 263.5t168 173.5t267 61q230 0 361.5 -131.5t131.5 -366.5q0 -233 -131 -365t-362 -132zM582 780q115 0 176 64t61 192q0 127 -60.5 191.5t-176.5 64.5q-236 0 -236 -256t236 -256z" />
    <glyph glyph-name="twosuperior" unicode="&#xb2;" horiz-adv-x="1051" 
d="M127 692l317 273q115 99 144.5 130.5t42 58t12.5 67.5q0 57 -38.5 80.5t-127.5 23.5q-65 0 -136 -17.5t-120 -43.5l-110 186q88 46 179 65t220 19q194 0 285.5 -69.5t91.5 -215.5q0 -67 -21 -121.5t-66.5 -109.5t-160.5 -154l-162 -145h418v-199h-768v172z" />
    <glyph glyph-name="threesuperior" unicode="&#xb3;" horiz-adv-x="1075" 
d="M522 508q-137 0 -237 25.5t-197 87.5l123 176q76 -45 141 -63.5t146 -18.5q112 0 149 27.5t37 99.5q0 68 -41 91t-160 23h-176v195h172q113 0 144.5 17.5t31.5 68.5t-33.5 68.5t-129.5 17.5q-159 0 -273 -68l-115 185q75 46 185.5 71t238.5 25q194 0 285.5 -57.5
t91.5 -184.5q0 -91 -31 -143.5t-96 -77.5q77 -23 115.5 -83t38.5 -177q0 -161 -102 -233t-308 -72z" />
    <glyph glyph-name="acute" unicode="&#xb4;" horiz-adv-x="1208" 
d="M682 1645h387l-391 -375h-285z" />
    <glyph glyph-name="paragraph" unicode="&#xb6;" horiz-adv-x="1391" 
d="M930 489h-168v-489h-301v510q-191 39 -281 152.5t-90 347.5q0 193 61 298t192.5 157.5t352.5 52.5h535v-1518h-301v489zM930 745v494h-240q-158 0 -217 -53t-59 -193q0 -138 60.5 -193t211.5 -55h244z" />
    <glyph glyph-name="periodcentered" unicode="&#xb7;" 
d="M113 938h372v-377h-372v377z" />
    <glyph glyph-name="periodcentered" unicode="&#x2219;" 
d="M113 938h372v-377h-372v377z" />
    <glyph glyph-name="cedilla" unicode="&#xb8;" horiz-adv-x="1208" 
d="M604 -510q-153 0 -274 68l80 149q98 -49 182 -49q73 0 101 20t28 64q0 38 -29 56t-95 18l-56 -2l-62 39l35 161h180l-18 -100h21q100 0 143 -19.5t67.5 -61t24.5 -114.5q0 -116 -79.5 -172.5t-248.5 -56.5z" />
    <glyph glyph-name="onesuperior" unicode="&#xb9;" horiz-adv-x="768" 
d="M295 1303h-172v215h424v-998h-252v783z" />
    <glyph glyph-name="questiondown" unicode="&#xbf;" horiz-adv-x="1438" 
d="M696 -25q-300 0 -433.5 95.5t-133.5 308.5q0 146 60 234t223 159q125 54 160 94.5t35 118.5l-5 92h313q11 -78 11 -138q0 -117 -52.5 -187t-207.5 -138q-97 -43 -136.5 -70t-55 -56.5t-15.5 -79.5q0 -60 25 -89.5t81 -44t156 -14.5q235 4 434 102l135 -266
q-118 -57 -276 -89t-318 -32zM573 1518h375v-322h-375v322z" />
    <glyph glyph-name="Agrave" unicode="&#xc0;" horiz-adv-x="1616" 
d="M637 1528h340l612 -1528h-348l-98 250h-688l-99 -250h-327zM1036 526l-237 604l-238 -604h475zM340 1975h387l289 -375h-285z" />
    <glyph glyph-name="Aacute" unicode="&#xc1;" horiz-adv-x="1616" 
d="M637 1528h340l612 -1528h-348l-98 250h-688l-99 -250h-327zM1036 526l-237 604l-238 -604h475zM883 1975h387l-391 -375h-285z" />
    <glyph glyph-name="Acircumflex" unicode="&#xc2;" horiz-adv-x="1616" 
d="M637 1528h340l612 -1528h-348l-98 250h-688l-99 -250h-327zM1036 526l-237 604l-238 -604h475zM639 1975h332l317 -375h-301l-186 176l-184 -176h-295z" />
    <glyph glyph-name="Atilde" unicode="&#xc3;" horiz-adv-x="1616" 
d="M637 1528h340l612 -1528h-348l-98 250h-688l-99 -250h-327zM1036 526l-237 604l-238 -604h475zM314 1737q178 221 344 221q54 0 91.5 -17t68 -38t59 -38t63.5 -17q73 0 172 120l179 -145q-183 -225 -345 -225q-51 0 -88 17t-68 38t-60.5 38t-65.5 17q-78 0 -172 -116z
" />
    <glyph glyph-name="Adieresis" unicode="&#xc4;" horiz-adv-x="1616" 
d="M637 1528h340l612 -1528h-348l-98 250h-688l-99 -250h-327zM1036 526l-237 604l-238 -604h475zM428 1889h291v-279h-291v279zM893 1889h289v-279h-289v279z" />
    <glyph glyph-name="Aring" unicode="&#xc5;" horiz-adv-x="1616" 
d="M596 1425q-82 78 -82 226q0 143 76 222t217 79q135 0 213 -80t78 -221q0 -142 -82 -224l573 -1427h-348l-98 250h-688l-99 -250h-327zM1036 526l-237 604l-238 -604h475zM807 1511q63 0 97 36t34 104q0 71 -34.5 106t-96.5 35q-133 0 -133 -141q0 -68 33.5 -104t99.5 -36
z" />
    <glyph glyph-name="AE" unicode="&#xc6;" horiz-adv-x="2351" 
d="M958 1518h1278v-304h-804v-294h784v-293h-784v-336h813v-291h-1135v260h-604l-174 -260h-326zM1110 532v693l-444 -693h444z" />
    <glyph glyph-name="Ccedilla" unicode="&#xc7;" horiz-adv-x="1554" 
d="M850 -23q-401 0 -590.5 190t-189.5 593q0 387 200 584.5t600 197.5q194 0 337 -51.5t259 -167.5l-231 -231q-78 76 -166 109.5t-201 33.5q-234 0 -347 -117.5t-113 -361.5q0 -253 111 -366.5t351 -113.5q119 0 206 33.5t179 120.5l222 -217q-122 -127 -273 -181.5
t-354 -54.5zM774 -510q-153 0 -274 68l80 149q98 -49 182 -49q73 0 101 20t28 64q0 38 -29 56t-95 18l-56 -2l-62 39l35 161h180l-18 -100h21q100 0 143 -19.5t67.5 -61t24.5 -114.5q0 -116 -79.5 -172.5t-248.5 -56.5z" />
    <glyph glyph-name="Egrave" unicode="&#xc8;" horiz-adv-x="1407" 
d="M152 1518h1140v-304h-805v-294h785v-293h-785v-336h813v-291h-1148v1518zM237 1975h387l289 -375h-285z" />
    <glyph glyph-name="Eacute" unicode="&#xc9;" horiz-adv-x="1407" 
d="M780 1975h387l-391 -375h-285zM152 1518h1140v-304h-805v-294h785v-293h-785v-336h813v-291h-1148v1518z" />
    <glyph glyph-name="Ecircumflex" unicode="&#xca;" horiz-adv-x="1407" 
d="M536 1975h332l317 -375h-301l-186 176l-184 -176h-295zM152 1518h1140v-304h-805v-294h785v-293h-785v-336h813v-291h-1148v1518z" />
    <glyph glyph-name="Edieresis" unicode="&#xcb;" horiz-adv-x="1407" 
d="M325 1889h291v-279h-291v279zM790 1889h289v-279h-289v279zM152 1518h1140v-304h-805v-294h785v-293h-785v-336h813v-291h-1148v1518z" />
    <glyph glyph-name="Igrave" unicode="&#xcc;" horiz-adv-x="682" 
d="M-172 1976h401l279 -377h-299zM174 1518h334v-1518h-334v1518z" />
    <glyph glyph-name="Iacute" unicode="&#xcd;" horiz-adv-x="682" 
d="M451 1976h401l-379 -377h-299zM174 1518h334v-1518h-334v1518z" />
    <glyph glyph-name="Icircumflex" unicode="&#xce;" horiz-adv-x="682" 
d="M174 1976h332l287 -377h-301l-156 177l-154 -177h-295zM174 1518h334v-1518h-334v1518z" />
    <glyph glyph-name="Idieresis" unicode="&#xcf;" horiz-adv-x="682" 
d="M174 1518h334v-1518h-334v1518zM-34 1889h291v-279h-291v279zM431 1889h289v-279h-289v279z" />
    <glyph glyph-name="Ntilde" unicode="&#xd1;" horiz-adv-x="1686" 
d="M152 1518h362l698 -957v957h320v-1518h-307l-752 1024v-1024h-321v1518zM349 1737q178 221 344 221q54 0 91.5 -17t68 -38t59 -38t63.5 -17q73 0 172 120l179 -145q-183 -225 -345 -225q-51 0 -88 17t-68 38t-60.5 38t-65.5 17q-78 0 -172 -116z" />
    <glyph glyph-name="Ograve" unicode="&#xd2;" horiz-adv-x="1747" 
d="M872 -25q-802 0 -802 785q0 782 802 782q805 0 805 -782q0 -785 -805 -785zM872 270q236 0 350.5 117t114.5 367q0 251 -114.5 366t-350.5 115q-235 0 -349.5 -115t-114.5 -366q0 -250 114 -367t350 -117zM407 1975h387l289 -375h-285z" />
    <glyph glyph-name="Oacute" unicode="&#xd3;" horiz-adv-x="1747" 
d="M950 1975h387l-391 -375h-285zM872 -25q-802 0 -802 785q0 782 802 782q805 0 805 -782q0 -785 -805 -785zM872 270q236 0 350.5 117t114.5 367q0 251 -114.5 366t-350.5 115q-235 0 -349.5 -115t-114.5 -366q0 -250 114 -367t350 -117z" />
    <glyph glyph-name="Ocircumflex" unicode="&#xd4;" horiz-adv-x="1747" 
d="M706 1975h332l317 -375h-301l-186 176l-184 -176h-295zM872 -25q-802 0 -802 785q0 782 802 782q805 0 805 -782q0 -785 -805 -785zM872 270q236 0 350.5 117t114.5 367q0 251 -114.5 366t-350.5 115q-235 0 -349.5 -115t-114.5 -366q0 -250 114 -367t350 -117z" />
    <glyph glyph-name="Otilde" unicode="&#xd5;" horiz-adv-x="1747" 
d="M872 -25q-802 0 -802 785q0 782 802 782q805 0 805 -782q0 -785 -805 -785zM872 270q236 0 350.5 117t114.5 367q0 251 -114.5 366t-350.5 115q-235 0 -349.5 -115t-114.5 -366q0 -250 114 -367t350 -117zM381 1737q178 221 344 221q54 0 91.5 -17t68 -38t59 -38
t63.5 -17q73 0 172 120l179 -145q-183 -225 -345 -225q-51 0 -88 17t-68 38t-60.5 38t-65.5 17q-78 0 -172 -116z" />
    <glyph glyph-name="Odieresis" unicode="&#xd6;" horiz-adv-x="1747" 
d="M495 1889h291v-279h-291v279zM960 1889h289v-279h-289v279zM872 -25q-802 0 -802 785q0 782 802 782q805 0 805 -782q0 -785 -805 -785zM872 270q236 0 350.5 117t114.5 367q0 251 -114.5 366t-350.5 115q-235 0 -349.5 -115t-114.5 -366q0 -250 114 -367t350 -117z" />
    <glyph glyph-name="multiply" unicode="&#xd7;" horiz-adv-x="1479" 
d="M238 416l305 305l-305 305l198 203l305 -305l303 305l197 -203l-305 -305l305 -303l-197 -203l-303 305l-309 -307z" />
    <glyph glyph-name="Oslash" unicode="&#xd8;" horiz-adv-x="1747" 
d="M872 -25q-158 0 -290 31l-54 -90h-313l118 199q-263 197 -263 645q0 391 198.5 586.5t603.5 195.5q154 0 283 -30l55 92h312l-118 -197q273 -195 273 -647q0 -391 -199 -588t-606 -197zM872 258q244 0 361 118.5t117 377.5q0 126 -27.5 219.5t-94.5 160.5l-504 -864
q66 -12 148 -12zM872 1247q-245 0 -361 -118t-116 -375q0 -261 112 -373l500 856q-61 10 -135 10z" />
    <glyph glyph-name="Ugrave" unicode="&#xd9;" horiz-adv-x="1671" 
d="M836 -29q-183 0 -314.5 35t-215 102t-124.5 176t-41 296v938h336v-895q0 -144 35 -215.5t113 -105.5t215 -34t215.5 33.5t113.5 105t35 216.5v895h326v-938q0 -188 -41.5 -296.5t-124.5 -175.5t-214 -102t-314 -35zM368 1975h387l289 -375h-285z" />
    <glyph glyph-name="Uacute" unicode="&#xda;" horiz-adv-x="1671" 
d="M911 1975h387l-391 -375h-285zM836 -29q-183 0 -314.5 35t-215 102t-124.5 176t-41 296v938h336v-895q0 -144 35 -215.5t113 -105.5t215 -34t215.5 33.5t113.5 105t35 216.5v895h326v-938q0 -188 -41.5 -296.5t-124.5 -175.5t-214 -102t-314 -35z" />
    <glyph glyph-name="Ucircumflex" unicode="&#xdb;" horiz-adv-x="1671" 
d="M667 1975h332l317 -375h-301l-186 176l-184 -176h-295zM836 -29q-183 0 -314.5 35t-215 102t-124.5 176t-41 296v938h336v-895q0 -144 35 -215.5t113 -105.5t215 -34t215.5 33.5t113.5 105t35 216.5v895h326v-938q0 -188 -41.5 -296.5t-124.5 -175.5t-214 -102t-314 -35z
" />
    <glyph glyph-name="Udieresis" unicode="&#xdc;" horiz-adv-x="1671" 
d="M456 1889h291v-279h-291v279zM921 1889h289v-279h-289v279zM836 -29q-183 0 -314.5 35t-215 102t-124.5 176t-41 296v938h336v-895q0 -144 35 -215.5t113 -105.5t215 -34t215.5 33.5t113.5 105t35 216.5v895h326v-938q0 -188 -41.5 -296.5t-124.5 -175.5t-214 -102
t-314 -35z" />
    <glyph glyph-name="Yacute" unicode="&#xdd;" horiz-adv-x="1556" 
d="M6 1518h361l417 -684l418 684h346l-604 -986v-532h-334v532zM854 1975h387l-391 -375h-285z" />
    <glyph glyph-name="germandbls" unicode="&#xdf;" horiz-adv-x="1423" 
d="M127 1063q0 281 142.5 412t437.5 131q260 0 395 -103.5t135 -310.5q0 -154 -38.5 -236.5t-137.5 -124.5q113 -23 174 -67t92 -120.5t31 -194.5q0 -187 -60 -277.5t-197.5 -131t-383.5 -40.5h-123v272h113q125 0 197.5 19.5t104 59t31.5 120.5t-35.5 118t-119 52.5
t-244.5 15.5v252q157 0 218 42t61 155q0 100 -53.5 144t-166.5 44q-138 0 -197 -60.5t-59 -182.5v-1051h-317v1063z" />
    <glyph glyph-name="agrave" unicode="&#xe0;" horiz-adv-x="1321" 
d="M487 -18q-222 0 -329 83t-107 275q0 153 70.5 240.5t222 126t451.5 38.5h47l-6 58q-8 52 -59 76t-165 24q-86 0 -175.5 -25t-160.5 -69l-159 235q93 63 241 102.5t289 39.5q197 0 304.5 -42t153.5 -134.5t46 -284.5v-352q0 -57 7 -74.5t25 -25t68 -7.5v-262
q-27 -8 -135 -8q-97 0 -142.5 24.5t-78.5 90.5q-97 -129 -408 -129zM356 367q0 -68 44.5 -97.5t150.5 -29.5q155 0 223 57.5t68 183.5v43h-27q-152 0 -238.5 -6.5t-133.5 -21t-67 -42t-20 -87.5zM196 1645h387l289 -375h-285z" />
    <glyph glyph-name="aacute" unicode="&#xe1;" horiz-adv-x="1321" 
d="M487 -18q-222 0 -329 83t-107 275q0 153 70.5 240.5t222 126t451.5 38.5h47l-6 58q-8 52 -59 76t-165 24q-86 0 -175.5 -25t-160.5 -69l-159 235q93 63 241 102.5t289 39.5q197 0 304.5 -42t153.5 -134.5t46 -284.5v-352q0 -57 7 -74.5t25 -25t68 -7.5v-262
q-27 -8 -135 -8q-97 0 -142.5 24.5t-78.5 90.5q-97 -129 -408 -129zM356 367q0 -68 44.5 -97.5t150.5 -29.5q155 0 223 57.5t68 183.5v43h-27q-152 0 -238.5 -6.5t-133.5 -21t-67 -42t-20 -87.5zM739 1645h387l-391 -375h-285z" />
    <glyph glyph-name="acircumflex" unicode="&#xe2;" horiz-adv-x="1321" 
d="M487 -18q-222 0 -329 83t-107 275q0 153 70.5 240.5t222 126t451.5 38.5h47l-6 58q-8 52 -59 76t-165 24q-86 0 -175.5 -25t-160.5 -69l-159 235q93 63 241 102.5t289 39.5q197 0 304.5 -42t153.5 -134.5t46 -284.5v-352q0 -57 7 -74.5t25 -25t68 -7.5v-262
q-27 -8 -135 -8q-97 0 -142.5 24.5t-78.5 90.5q-97 -129 -408 -129zM356 367q0 -68 44.5 -97.5t150.5 -29.5q155 0 223 57.5t68 183.5v43h-27q-152 0 -238.5 -6.5t-133.5 -21t-67 -42t-20 -87.5zM495 1645h332l317 -375h-301l-186 176l-184 -176h-295z" />
    <glyph glyph-name="atilde" unicode="&#xe3;" horiz-adv-x="1321" 
d="M487 -18q-222 0 -329 83t-107 275q0 153 70.5 240.5t222 126t451.5 38.5h47l-6 58q-8 52 -59 76t-165 24q-86 0 -175.5 -25t-160.5 -69l-159 235q93 63 241 102.5t289 39.5q197 0 304.5 -42t153.5 -134.5t46 -284.5v-352q0 -57 7 -74.5t25 -25t68 -7.5v-262
q-27 -8 -135 -8q-97 0 -142.5 24.5t-78.5 90.5q-97 -129 -408 -129zM356 367q0 -68 44.5 -97.5t150.5 -29.5q155 0 223 57.5t68 183.5v43h-27q-152 0 -238.5 -6.5t-133.5 -21t-67 -42t-20 -87.5zM170 1407q178 221 344 221q54 0 91.5 -17t68 -38t59 -38t63.5 -17
q73 0 172 120l179 -145q-183 -225 -345 -225q-51 0 -88 17t-68 38t-60.5 38t-65.5 17q-78 0 -172 -116z" />
    <glyph glyph-name="adieresis" unicode="&#xe4;" horiz-adv-x="1321" 
d="M487 -18q-222 0 -329 83t-107 275q0 153 70.5 240.5t222 126t451.5 38.5h47l-6 58q-8 52 -59 76t-165 24q-86 0 -175.5 -25t-160.5 -69l-159 235q93 63 241 102.5t289 39.5q197 0 304.5 -42t153.5 -134.5t46 -284.5v-352q0 -57 7 -74.5t25 -25t68 -7.5v-262
q-27 -8 -135 -8q-97 0 -142.5 24.5t-78.5 90.5q-97 -129 -408 -129zM356 367q0 -68 44.5 -97.5t150.5 -29.5q155 0 223 57.5t68 183.5v43h-27q-152 0 -238.5 -6.5t-133.5 -21t-67 -42t-20 -87.5zM284 1559h291v-279h-291v279zM749 1559h289v-279h-289v279z" />
    <glyph glyph-name="aring" unicode="&#xe5;" horiz-adv-x="1321" 
d="M487 -18q-222 0 -329 83t-107 275q0 153 70.5 240.5t222 126t451.5 38.5h47l-6 58q-8 52 -59 76t-165 24q-86 0 -175.5 -25t-160.5 -69l-159 235q93 63 241 102.5t289 39.5q197 0 304.5 -42t153.5 -134.5t46 -284.5v-352q0 -57 7 -74.5t25 -25t68 -7.5v-262
q-27 -8 -135 -8q-97 0 -142.5 24.5t-78.5 90.5q-97 -129 -408 -129zM356 367q0 -68 44.5 -97.5t150.5 -29.5q155 0 223 57.5t68 183.5v43h-27q-152 0 -238.5 -6.5t-133.5 -21t-67 -42t-20 -87.5zM661 1237q-141 0 -217 77t-76 220t76 222t217 79q135 0 213 -80t78 -221
q0 -140 -78 -218.5t-213 -78.5zM661 1395q66 0 98.5 36.5t32.5 102.5q0 71 -34.5 106t-96.5 35q-133 0 -133 -141q0 -139 133 -139z" />
    <glyph glyph-name="ae" unicode="&#xe6;" horiz-adv-x="2025" 
d="M1434 -23q-346 0 -472 171q-42 -62 -96.5 -98t-128.5 -52t-250 -16q-155 0 -250.5 37.5t-140.5 112t-45 208.5q0 155 69 241.5t219.5 125t455.5 38.5h47l-6 58q-8 52 -59 76t-165 24q-86 0 -175.5 -25t-160.5 -69l-159 235q93 63 241 102.5t289 39.5q139 0 230 -27
t143 -85q138 112 412 112q264 0 388 -125t130 -413v-62l-2 -127h-807q11 -80 43 -126.5t91 -70.5t159 -24q117 0 202.5 24.5t161.5 81.5l162 -209q-118 -89 -237.5 -123.5t-288.5 -34.5zM356 367q0 -72 43.5 -99.5t149.5 -27.5q157 0 225 56.5t68 184.5v43h-27
q-199 0 -293 -12t-130 -41t-36 -104zM1655 688q-4 106 -26.5 147t-70 62t-135.5 21q-127 0 -194.5 -49.5t-83.5 -153.5l-4 -27h514z" />
    <glyph glyph-name="ccedilla" unicode="&#xe7;" horiz-adv-x="1202" 
d="M666 -18q-208 0 -339 65t-193 193t-62 342q0 219 65.5 349t200.5 192.5t342 62.5q301 0 471 -189l-225 -213q-57 60 -116 83.5t-130 23.5q-148 0 -216.5 -73t-68.5 -245q0 -123 29.5 -189t92 -99t165.5 -33q79 0 138 25.5t124 87.5l205 -197q-118 -109 -224.5 -147.5
t-258.5 -38.5zM595 -510q-153 0 -274 68l80 149q98 -49 182 -49q73 0 101 20t28 64q0 38 -29 56t-95 18l-56 -2l-62 39l35 161h180l-18 -100h21q100 0 143 -19.5t67.5 -61t24.5 -114.5q0 -116 -79.5 -172.5t-248.5 -56.5z" />
    <glyph glyph-name="egrave" unicode="&#xe8;" horiz-adv-x="1268" 
d="M676 -23q-203 0 -337.5 61.5t-200.5 191.5t-66 352q0 219 68 350t202 192.5t332 61.5q264 0 387.5 -125t129.5 -413v-80l-1 -109h-807q11 -80 43 -126.5t91 -70.5t159 -24q117 0 202.5 24.5t161.5 81.5l162 -209q-115 -86 -238 -122t-288 -36zM897 688q-6 97 -30 141.5
t-72.5 66.5t-130.5 22q-94 0 -151 -25t-87.5 -72t-42.5 -133h514zM168 1645h387l289 -375h-285z" />
    <glyph glyph-name="eacute" unicode="&#xe9;" horiz-adv-x="1268" 
d="M711 1645h387l-391 -375h-285zM676 -23q-203 0 -337.5 61.5t-200.5 191.5t-66 352q0 219 68 350t202 192.5t332 61.5q264 0 387.5 -125t129.5 -413v-80l-1 -109h-807q11 -80 43 -126.5t91 -70.5t159 -24q117 0 202.5 24.5t161.5 81.5l162 -209q-115 -86 -238 -122
t-288 -36zM897 688q-6 97 -30 141.5t-72.5 66.5t-130.5 22q-94 0 -151 -25t-87.5 -72t-42.5 -133h514z" />
    <glyph glyph-name="ecircumflex" unicode="&#xea;" horiz-adv-x="1268" 
d="M467 1645h332l317 -375h-301l-186 176l-184 -176h-295zM676 -23q-203 0 -337.5 61.5t-200.5 191.5t-66 352q0 219 68 350t202 192.5t332 61.5q264 0 387.5 -125t129.5 -413v-80l-1 -109h-807q11 -80 43 -126.5t91 -70.5t159 -24q117 0 202.5 24.5t161.5 81.5l162 -209
q-115 -86 -238 -122t-288 -36zM897 688q-6 97 -30 141.5t-72.5 66.5t-130.5 22q-94 0 -151 -25t-87.5 -72t-42.5 -133h514z" />
    <glyph glyph-name="edieresis" unicode="&#xeb;" horiz-adv-x="1268" 
d="M256 1559h291v-279h-291v279zM721 1559h289v-279h-289v279zM676 -23q-203 0 -337.5 61.5t-200.5 191.5t-66 352q0 219 68 350t202 192.5t332 61.5q264 0 387.5 -125t129.5 -413v-80l-1 -109h-807q11 -80 43 -126.5t91 -70.5t159 -24q117 0 202.5 24.5t161.5 81.5
l162 -209q-115 -86 -238 -122t-288 -36zM897 688q-6 97 -30 141.5t-72.5 66.5t-130.5 22q-94 0 -151 -25t-87.5 -72t-42.5 -133h514z" />
    <glyph glyph-name="igrave" unicode="&#xec;" 
d="M-125 1645h391l191 -375h-291zM139 1159h320v-1159h-320v1159z" />
    <glyph glyph-name="iacute" unicode="&#xed;" 
d="M332 1645h393l-291 -375h-291zM139 1159h320v-1159h-320v1159z" />
    <glyph glyph-name="icircumflex" unicode="&#xee;" 
d="M141 1645h316l266 -375h-293l-135 176l-135 -176h-285zM139 1159h320v-1159h-320v1159z" />
    <glyph glyph-name="idieresis" unicode="&#xef;" 
d="M-33 1559h258v-279h-258v279zM375 1559h258v-279h-258v279zM139 1159h320v-1159h-320v1159z" />
    <glyph glyph-name="ntilde" unicode="&#xf1;" horiz-adv-x="1360" 
d="M127 1141l250 18l26 -100q117 127 420 127q151 0 241.5 -48.5t132.5 -146t42 -289.5v-702h-319v639q0 107 -20 152t-65 68.5t-126 23.5q-95 0 -152 -26t-82.5 -77.5t-25.5 -154.5v-625h-322v1141zM187 1407q178 221 344 221q54 0 91.5 -17t68 -38t59 -38t63.5 -17
q73 0 172 120l179 -145q-183 -225 -345 -225q-51 0 -88 17t-68 38t-60.5 38t-65.5 17q-78 0 -172 -116z" />
    <glyph glyph-name="ograve" unicode="&#xf2;" horiz-adv-x="1354" 
d="M678 -23q-309 0 -457.5 147.5t-148.5 457.5q0 308 147 456t459 148q309 0 456.5 -147t147.5 -457q0 -312 -149 -458.5t-455 -146.5zM678 252q146 0 214.5 75t68.5 246t-68.5 245.5t-214.5 74.5q-147 0 -215 -75t-68 -245q0 -171 68 -246t215 -75zM211 1645h387l289 -375
h-285z" />
    <glyph glyph-name="oacute" unicode="&#xf3;" horiz-adv-x="1354" 
d="M754 1645h387l-391 -375h-285zM678 -23q-309 0 -457.5 147.5t-148.5 457.5q0 308 147 456t459 148q309 0 456.5 -147t147.5 -457q0 -312 -149 -458.5t-455 -146.5zM678 252q146 0 214.5 75t68.5 246t-68.5 245.5t-214.5 74.5q-147 0 -215 -75t-68 -245q0 -171 68 -246
t215 -75z" />
    <glyph glyph-name="ocircumflex" unicode="&#xf4;" horiz-adv-x="1354" 
d="M510 1645h332l317 -375h-301l-186 176l-184 -176h-295zM678 -23q-309 0 -457.5 147.5t-148.5 457.5q0 308 147 456t459 148q309 0 456.5 -147t147.5 -457q0 -312 -149 -458.5t-455 -146.5zM678 252q146 0 214.5 75t68.5 246t-68.5 245.5t-214.5 74.5q-147 0 -215 -75
t-68 -245q0 -171 68 -246t215 -75z" />
    <glyph glyph-name="otilde" unicode="&#xf5;" horiz-adv-x="1354" 
d="M678 -23q-309 0 -457.5 147.5t-148.5 457.5q0 308 147 456t459 148q309 0 456.5 -147t147.5 -457q0 -312 -149 -458.5t-455 -146.5zM678 252q146 0 214.5 75t68.5 246t-68.5 245.5t-214.5 74.5q-147 0 -215 -75t-68 -245q0 -171 68 -246t215 -75zM185 1407
q178 221 344 221q54 0 91.5 -17t68 -38t59 -38t63.5 -17q73 0 172 120l179 -145q-183 -225 -345 -225q-51 0 -88 17t-68 38t-60.5 38t-65.5 17q-78 0 -172 -116z" />
    <glyph glyph-name="odieresis" unicode="&#xf6;" horiz-adv-x="1354" 
d="M299 1559h291v-279h-291v279zM764 1559h289v-279h-289v279zM678 -23q-309 0 -457.5 147.5t-148.5 457.5q0 308 147 456t459 148q309 0 456.5 -147t147.5 -457q0 -312 -149 -458.5t-455 -146.5zM678 252q146 0 214.5 75t68.5 246t-68.5 245.5t-214.5 74.5q-147 0 -215 -75
t-68 -245q0 -171 68 -246t215 -75z" />
    <glyph glyph-name="divide" unicode="&#xf7;" horiz-adv-x="1479" 
d="M578 438h323v-276h-323v276zM190 866h1098v-288h-1098v288zM578 1282h323v-276h-323v276z" />
    <glyph glyph-name="oslash" unicode="&#xf8;" horiz-adv-x="1354" 
d="M678 -23q-128 0 -225 23l-56 -88h-286l123 193q-162 142 -162 477q0 317 145.5 460.5t460.5 143.5q126 0 222 -23l56 88h289l-124 -194q161 -140 161 -475q0 -318 -145.5 -461.5t-458.5 -143.5zM678 244q149 0 219 76t70 253q0 132 -38 206l-331 -530q36 -5 80 -5z
M678 901q-148 0 -218.5 -74t-70.5 -254q0 -131 33 -199l323 522q-31 5 -67 5z" />
    <glyph glyph-name="ugrave" unicode="&#xf9;" horiz-adv-x="1343" 
d="M674 -18q-212 0 -330 52t-170.5 166t-52.5 341v618h321v-624q0 -61 4 -111.5t26.5 -87t70 -56.5t133.5 -20q90 0 139.5 24t70.5 71t21 182v622h316v-616q0 -228 -52 -343t-169.5 -166.5t-327.5 -51.5zM207 1645h387l289 -375h-285z" />
    <glyph glyph-name="uacute" unicode="&#xfa;" horiz-adv-x="1343" 
d="M750 1645h387l-391 -375h-285zM674 -18q-212 0 -330 52t-170.5 166t-52.5 341v618h321v-624q0 -61 4 -111.5t26.5 -87t70 -56.5t133.5 -20q90 0 139.5 24t70.5 71t21 182v622h316v-616q0 -228 -52 -343t-169.5 -166.5t-327.5 -51.5z" />
    <glyph glyph-name="ucircumflex" unicode="&#xfb;" horiz-adv-x="1343" 
d="M506 1645h332l317 -375h-301l-186 176l-184 -176h-295zM674 -18q-212 0 -330 52t-170.5 166t-52.5 341v618h321v-624q0 -61 4 -111.5t26.5 -87t70 -56.5t133.5 -20q90 0 139.5 24t70.5 71t21 182v622h316v-616q0 -228 -52 -343t-169.5 -166.5t-327.5 -51.5z" />
    <glyph glyph-name="udieresis" unicode="&#xfc;" horiz-adv-x="1343" 
d="M295 1559h291v-279h-291v279zM760 1559h289v-279h-289v279zM674 -18q-212 0 -330 52t-170.5 166t-52.5 341v618h321v-624q0 -61 4 -111.5t26.5 -87t70 -56.5t133.5 -20q90 0 139.5 24t70.5 71t21 182v622h316v-616q0 -228 -52 -343t-169.5 -166.5t-327.5 -51.5z" />
    <glyph glyph-name="yacute" unicode="&#xfd;" horiz-adv-x="1196" 
d="M-2 1159h346l268 -738l260 738h326l-465 -1210q-45 -122 -100.5 -183t-139.5 -87.5t-219 -26.5l-114 4v242h86q64 0 98 7t52 23t30 56l15 42zM679 1645h387l-391 -375h-285z" />
    <glyph glyph-name="ydieresis" unicode="&#xff;" horiz-adv-x="1196" 
d="M-2 1159h346l268 -738l260 738h326l-465 -1210q-45 -122 -100.5 -183t-139.5 -87.5t-219 -26.5l-114 4v242h86q64 0 98 7t52 23t30 56l15 42zM224 1559h291v-279h-291v279zM689 1559h289v-279h-289v279z" />
    <glyph glyph-name="dotlessi" unicode="&#x131;" 
d="M139 1159h320v-1159h-320v1159z" />
    <glyph glyph-name="Lslash" unicode="&#x141;" horiz-adv-x="1264" 
d="M0 801l152 83v634h335v-450l281 155v-271l-281 -155v-506h746v-291h-1081v613l-152 -83v271z" />
    <glyph glyph-name="lslash" unicode="&#x142;" horiz-adv-x="829" 
d="M49 932l180 103v554h320v-370l188 108v-270l-188 -108v-560q0 -72 21 -96.5t92 -24.5h40v-264q-53 -8 -155 -8q-173 0 -245.5 82.5t-72.5 271.5v415l-180 -103v270z" />
    <glyph glyph-name="OE" unicode="&#x152;" horiz-adv-x="2585" 
d="M1362 1518h1106v-304h-803v-294h782v-293h-782v-336h811v-291h-1114v117q-177 -142 -490 -142q-406 0 -604 196.5t-198 588.5q0 391 198.5 586.5t603.5 195.5q313 0 490 -142v118zM872 270q237 0 351 114.5t114 369.5q0 256 -114.5 368.5t-350.5 112.5
q-237 0 -350.5 -113.5t-113.5 -367.5t114 -369t350 -115z" />
    <glyph glyph-name="oe" unicode="&#x153;" horiz-adv-x="2157" 
d="M1567 -23q-316 0 -450 143q-136 -143 -439 -143q-314 0 -460 143.5t-146 461.5q0 317 145.5 460.5t460.5 143.5q157 0 264 -36.5t177 -108.5q136 145 446 145q264 0 387.5 -125t129.5 -413v-80l-1 -109h-809q11 -80 43 -126.5t91.5 -70.5t160.5 -24q117 0 202.5 24.5
t161.5 81.5l162 -209q-117 -88 -236.5 -123t-289.5 -35zM678 252q146 0 214.5 75t68.5 246t-68.5 245.5t-214.5 74.5q-147 0 -215 -75t-68 -245q0 -171 68 -246t215 -75zM1788 688q-6 108 -29 149t-71 61t-134 20q-94 0 -151.5 -25.5t-88 -73t-42.5 -131.5h516z" />
    <glyph glyph-name="Scaron" unicode="&#x160;" horiz-adv-x="1518" 
d="M275 1975h301l186 -177l185 177h294l-317 -375h-332zM768 -23q-227 0 -410 51.5t-313 147.5l168 242q241 -162 545 -162q135 0 210.5 17t108.5 53t33 114q0 53 -31.5 85.5t-100 54t-228.5 43.5q-266 37 -386 89t-175.5 140.5t-55.5 230.5q0 243 148.5 351t484.5 108
q388 0 614 -149l-180 -260q-76 51 -200 83.5t-238 32.5q-113 0 -176.5 -15t-91 -47t-27.5 -95q0 -50 29 -81.5t89.5 -52t248.5 -47.5q213 -30 318 -64.5t167 -85.5t92.5 -127t30.5 -177q0 -254 -163.5 -367t-510.5 -113z" />
    <glyph glyph-name="scaron" unicode="&#x161;" horiz-adv-x="1174" 
d="M106 1645h301l186 -177l185 177h294l-317 -375h-332zM573 -18q-337 0 -553 145l164 235q87 -56 197.5 -88t212.5 -32q131 0 170 20t39 76q0 30 -14.5 47.5t-47.5 28.5t-143 26q-161 22 -229 40.5t-120 45.5t-86 67t-52.5 95t-18.5 135q0 188 123 275.5t383 87.5
q143 0 271.5 -28t217.5 -79l-153 -250q-71 37 -161 56.5t-165 19.5q-73 0 -116 -8t-61.5 -25t-18.5 -51q0 -46 37 -65.5t153 -34.5q111 -15 205 -33.5t162.5 -56t107.5 -102.5t39 -173q0 -139 -53.5 -218.5t-170.5 -117.5t-319 -38z" />
    <glyph glyph-name="Ydieresis" unicode="&#x178;" horiz-adv-x="1556" 
d="M6 1518h361l417 -684l418 684h346l-604 -986v-532h-334v532zM399 1889h291v-279h-291v279zM864 1889h289v-279h-289v279z" />
    <glyph glyph-name="Zcaron" unicode="&#x17d;" horiz-adv-x="1417" 
d="M225 1975h301l186 -177l185 177h294l-317 -375h-332zM66 250l833 964h-799v304h1223v-275l-821 -952h844v-291h-1280v250z" />
    <glyph glyph-name="zcaron" unicode="&#x17e;" horiz-adv-x="1106" 
d="M73 1645h301l186 -177l185 177h294l-317 -375h-332zM41 215l575 670h-542v274h975v-219l-580 -682h602v-258h-1030v215z" />
    <glyph glyph-name="circumflex" unicode="&#x2c6;" horiz-adv-x="1208" 
d="M438 1645h332l317 -375h-301l-186 176l-184 -176h-295z" />
    <glyph glyph-name="ring" unicode="&#x2da;" horiz-adv-x="1208" 
d="M604 1237q-141 0 -217 77t-76 220t76 222t217 79q135 0 213 -80t78 -221q0 -140 -78 -218.5t-213 -78.5zM604 1395q66 0 98.5 36.5t32.5 102.5q0 71 -34.5 106t-96.5 35q-133 0 -133 -141q0 -139 133 -139z" />
    <glyph glyph-name="tilde" unicode="&#x2dc;" horiz-adv-x="1208" 
d="M113 1407q178 221 344 221q54 0 91.5 -17t68 -38t59 -38t63.5 -17q73 0 172 120l179 -145q-183 -225 -345 -225q-51 0 -88 17t-68 38t-60.5 38t-65.5 17q-78 0 -172 -116z" />
    <glyph glyph-name="endash" unicode="&#x2013;" horiz-adv-x="1530" 
d="M78 815h1374v-287h-1374v287z" />
    <glyph glyph-name="emdash" unicode="&#x2014;" horiz-adv-x="1970" 
d="M78 815h1814v-287h-1814v287z" />
    <glyph glyph-name="quoteleft" unicode="&#x2018;" 
d="M113 1071q0 148 23 219.5t80 122.5t183 109l78 -158q-108 -53 -137 -86t-29 -100h174v-369h-372v262z" />
    <glyph glyph-name="quoteright" unicode="&#x2019;" 
d="M123 963q71 32 105 56t47.5 51t13.5 77h-176v371h372v-263q0 -158 -23.5 -228t-82 -120.5t-178.5 -101.5z" />
    <glyph glyph-name="quotedblleft" unicode="&#x201c;" horiz-adv-x="1087" 
d="M113 1079q0 148 23.5 217.5t81 119.5t175.5 102l74 -154q-103 -48 -132.5 -81t-29.5 -99h172v-361h-364v256zM612 1079q0 148 23.5 218.5t78 118.5t175.5 102l76 -154q-71 -33 -103.5 -56t-45.5 -49t-13 -75h170v-361h-361v256z" />
    <glyph glyph-name="quotedblright" unicode="&#x201d;" horiz-adv-x="1087" 
d="M123 975q103 50 132.5 83t29.5 101h-172v359h364v-256q0 -149 -24 -219t-82 -120t-174 -100zM618 975q74 36 107 60t45 50t12 74h-170v359h361v-256q0 -146 -23 -216.5t-78.5 -120t-175.5 -102.5z" />
    <glyph glyph-name="dagger" unicode="&#x2020;" horiz-adv-x="1225" 
d="M453 834h-357v288h357v467h317v-467h358v-288h-358v-1174h-317v1174z" />
    <glyph glyph-name="daggerdbl" unicode="&#x2021;" horiz-adv-x="1225" 
d="M453 145h-357v289h357v400h-357v288h357v467h317v-467h358v-288h-358v-400h358v-289h-358v-485h-317v485z" />
    <glyph glyph-name="bullet" unicode="&#x2022;" horiz-adv-x="795" 
d="M182 856h432v-467h-432v467z" />
    <glyph glyph-name="ellipsis" unicode="&#x2026;" horiz-adv-x="1726" 
d="M113 369h372v-369h-372v369zM676 369h373v-369h-373v369zM1239 369h373v-369h-373v369z" />
    <glyph glyph-name="Euro" unicode="&#x20ac;" horiz-adv-x="1470" 
d="M59 688h235l-1 74v45h-234v223h255q40 252 191 382t419 130q145 0 242.5 -18.5t199.5 -69.5l-141 -264q-126 65 -293 65q-130 0 -204 -54.5t-103 -170.5h434v-223h-457v-39l1 -80h456v-225h-423q64 -213 292 -213q172 0 299 78l149 -242q-92 -57 -202.5 -84t-262.5 -27
q-242 0 -390 119.5t-201 368.5h-261v225z" />
    <glyph glyph-name="trademark" unicode="&#x2122;" horiz-adv-x="2279" 
d="M1026 1518h272l246 -635l248 635h272v-943h-235v547l-209 -547h-158l-209 547v-547h-227v943zM403 1305h-305v213h850v-213h-305v-730h-240v730z" />
    <glyph glyph-name="minus" unicode="&#x2212;" horiz-adv-x="1479" 
d="M190 866h1098v-288h-1098v288z" />
    <glyph glyph-name="fi" unicode="&#xfb01;" horiz-adv-x="1468" 
d="M51 1159h219v55q0 224 104 318t335 94l153 -4v-262h-110q-86 0 -124 -31.5t-38 -111.5v-58h272v-274h-272v-885h-320v885h-219v274zM1008 1159h321v-1159h-321v1159zM1006 1559h325v-293h-325v293z" />
    <glyph glyph-name="fl" unicode="&#xfb02;" horiz-adv-x="1565" 
d="M51 1159h219v55q0 224 104 318t335 94l153 -4v-262h-110q-86 0 -124 -31.5t-38 -111.5v-58h272v-274h-272v-885h-320v885h-219v274zM1325 -4q-171 0 -244 82t-73 272v1239h321v-1200q0 -76 22.5 -98.5t90.5 -22.5h39v-264q-53 -8 -156 -8z" />
    <glyph glyph-name="caron" horiz-adv-x="1208" 
d="M121 1645h301l186 -177l185 177h294l-317 -375h-332z" />
  </font>
</defs>
</svg>
